# xmcd
#
# Track frame offsets: 
#        183
#        11513
#        23628
#        36875
#        50083
#        62858
#        77123
#        89673
#        102388
#        116418
#        128383
#        140958
#        154803
#        168010
#        181100
#        195225
#
# Disc length: 2766 seconds
#
# Revision: 4
# Processed by: cddbd v1.4PL0 Copyright (c) Steve Scherf et al.
# Submitted via: ExactAudioCopy v0.95a3
#
DISCID=cc0acc10
DTITLE=Muddy Waters - Rock Me: Charly Blues Masterworks, Vol. 10
DYEAR=1993
DGENRE=
TTITLE0=Sugar Sweet
TTITLE1=Trouble No More
TTITLE2=All Aboard
TTITLE3=Don't Go No Further
TTITLE4=I Love The Life I Live, I Live The Life I Love
TTITLE5=Rock Me
TTITLE6=Got My Mojo Working
TTITLE7=She's Got It
TTITLE8=Close To You
TTITLE9=Walking Thru The Park
TTITLE10=Mean Mistreater
TTITLE11=Lonesome Road Blues
TTITLE12=Mopper's Blues
TTITLE13=Southbound Train
TTITLE14=Take The Bitter With The Sweet
TTITLE15=She's Into Something
EXTD=
EXTT0=
EXTT1=
EXTT2=
EXTT3=
EXTT4=
EXTT5=
EXTT6=
EXTT7=
EXTT8=
EXTT9=
EXTT10=
EXTT11=
EXTT12=
EXTT13=
EXTT14=
EXTT15=
PLAYORDER=
